<?xml version="1.0" encoding="utf-8"?>
<!-- Generator: Adobe Illustrator 26.0.0, SVG Export Plug-In . SVG Version: 6.00 Build 0)  -->
<svg version="1.1" id="Слой_1" xmlns="http://www.w3.org/2000/svg" xmlns:xlink="http://www.w3.org/1999/xlink" x="0px" y="0px"
	 viewBox="0 0 512 512" style="enable-background:new 0 0 512 512;" xml:space="preserve">
<style type="text/css">
	.st0{display:none;}
	.st1{display:none;fill:url(#SVGID_1_);}
	.st2{fill:#FFFFFF;}
	.st3{fill:#007FFF;}
</style>
<rect x="-0.2" y="0.2" class="st0" width="512" height="512"/>
<radialGradient id="SVGID_1_" cx="255.5" cy="670.8" r="328.7282" gradientTransform="matrix(1 0 0 -1 0 926)" gradientUnits="userSpaceOnUse">
	<stop  offset="0" style="stop-color:#FF1D5E"/>
	<stop  offset="1" style="stop-color:#000000;stop-opacity:0.4"/>
</radialGradient>
<rect x="-0.5" y="-0.8" class="st1" width="512" height="512"/>
<g>
	<g>
		<circle class="st2" cx="256" cy="256" r="242.1"/>
		<path class="st3" d="M256,511.9C114.9,511.9,0,397,0,255.9S114.9,0,256,0s256,115,256,256S397,511.9,256,511.9z M256,14.1
			c-133.5,0-242.1,108.6-242.1,242S122.5,498.3,256,498.3S498.1,389.5,498.1,256C498,122.7,389.4,14.1,256,14.1z"/>
	</g>
	<path class="st3" d="M259.8,186.8c-5.3-0.3-10.6-0.6-15.7-0.6c43-48.3,88-73.6,110-58.5c12,8.2,15.2,27.1,10.6,51.9
		c6.4-30.7,2.9-54.6-12-64.9c-26.7-18.4-81.6,13.1-130.6,71.8c-14.6,0.4-29.3,1.8-43.8,3.9c-8.2-41.2-3.9-72.7,14.3-81.5
		c13.1-6.4,31.1,0.1,50.8,16.3c-23.8-20.7-46.6-29.3-62.9-21.4c-20.9,10.2-26.4,44.8-18.1,89.7c-45.3,9.6-75.8,28.4-77.2,51.5
		c-1.1,18.6,17,36.6,47.1,50.6C108.3,283.6,94.1,269,95,253.9c1.1-20.2,29.1-36.3,70.9-44.8c3.5,13.8,7.6,27.3,12.8,40.5
		c-36.8,65.5-46.3,126.5-19.7,144.6c15.4,10.6,40.3,4.6,68-13.8c-22.7,14.3-42.6,18.8-55.1,10.3c-21.8-14.9-14.3-64.9,15-121.4
		c2.4,5.4,5,11,7.6,16.4C236,369.9,297.2,424.8,331,408.4c16.8-8.2,23.8-32.7,21.3-65.5c1.4,26.7-4.4,46-18.1,52.7
		c-29.8,14.5-85.7-38-124.6-117.2c-4.6-9.2-8.6-18.5-12.4-27.5c5-8.5,10.4-17,16.4-25.4c5.4-7.9,11.1-15.4,16.8-22.7
		c9.3-0.1,18.9,0.1,28.8,0.7c88.7,5,159.1,35.7,157.1,68.7c-0.8,14.5-15.4,26.8-39.2,35.9c29.8-10.4,48.7-25.9,49.6-43.8
		C428.7,226.8,354,192.2,259.8,186.8z M199.5,216c-3.5,5-6.8,10-10,15c-2.9-8.5-5.4-16.8-7.5-24.9c8.5-1.3,17.2-2.1,26.6-2.6
		C205.4,207.6,202.5,211.8,199.5,216z"/>
</g>
</svg>
